<svg xmlns="http://www.w3.org/2000/svg" viewBox="0 0 192 192" width="192" height="192">
  <defs>
    <linearGradient id="bg3" x1="0%" y1="0%" x2="100%" y2="100%">
      <stop offset="0%" style="stop-color:#1a1a1a"/>
      <stop offset="100%" style="stop-color:#0d0d0d"/>
    </linearGradient>
    <linearGradient id="red3" x1="0%" y1="0%" x2="100%" y2="100%">
      <stop offset="0%" style="stop-color:#e63946"/>
      <stop offset="100%" style="stop-color:#c1121f"/>
    </linearGradient>
    <linearGradient id="door3" x1="0%" y1="0%" x2="100%" y2="100%">
      <stop offset="0%" style="stop-color:#252525"/>
      <stop offset="100%" style="stop-color:#181818"/>
    </linearGradient>
  </defs>
  
  <circle cx="96" cy="96" r="94" fill="url(#bg3)"/>
  <circle cx="96" cy="96" r="88" fill="none" stroke="#252525" stroke-width="2"/>
  
  <polygon 
    points="96,22 160,59 160,133 96,170 32,133 32,59" 
    fill="url(#door3)"
    stroke="url(#red3)" 
    stroke-width="1.5"
  />
  
  <polygon 
    points="96,35 146,66 146,126 96,157 46,126 46,66" 
    fill="none"
    stroke="#333" 
    stroke-width="1"
  />
  
  <circle cx="96" cy="96" r="28" fill="#151515" stroke="#333" stroke-width="1.5"/>
  <circle cx="96" cy="96" r="22" fill="none" stroke="url(#red3)" stroke-width="1"/>
  
  <g stroke="#444" stroke-width="3" stroke-linecap="round">
    <line x1="96" y1="73" x2="96" y2="82"/>
    <line x1="96" y1="110" x2="96" y2="119"/>
    <line x1="73" y1="96" x2="82" y2="96"/>
    <line x1="110" y1="96" x2="119" y2="96"/>
  </g>
  
  <circle cx="96" cy="96" r="6" fill="url(#red3)"/>
  
  <g transform="translate(96, 35)">
    <polygon points="0,-11 10,-6 10,6 0,11 -10,6 -10,-6" fill="#1a1a1a" stroke="url(#red3)" stroke-width="1"/>
    <circle r="4" fill="url(#red3)"/>
  </g>
  
  <g transform="translate(46, 126)">
    <polygon points="0,-11 10,-6 10,6 0,11 -10,6 -10,-6" fill="#1a1a1a" stroke="url(#red3)" stroke-width="1"/>
    <circle r="4" fill="url(#red3)"/>
  </g>
  
  <g transform="translate(146, 126)">
    <polygon points="0,-11 10,-6 10,6 0,11 -10,6 -10,-6" fill="#1a1a1a" stroke="url(#red3)" stroke-width="1"/>
    <circle r="4" fill="url(#red3)"/>
  </g>
  
  <g transform="translate(32, 96)">
    <rect x="-6" y="-8" width="12" height="16" rx="2" fill="#1a1a1a" stroke="#333" stroke-width="1"/>
    <circle r="2" fill="#444"/>
  </g>
  
  <g transform="translate(160, 96)">
    <rect x="-6" y="-8" width="12" height="16" rx="2" fill="#1a1a1a" stroke="#333" stroke-width="1"/>
    <circle r="2" fill="#444"/>
  </g>
  
  <g fill="#333">
    <circle cx="66" cy="49" r="2"/>
    <circle cx="126" cy="49" r="2"/>
    <circle cx="66" cy="143" r="2"/>
    <circle cx="126" cy="143" r="2"/>
  </g>
</svg>
